<svg id="Layer_1" data-name="Layer 1" xmlns="http://www.w3.org/2000/svg" xmlns:xlink="http://www.w3.org/1999/xlink" viewBox="0 0 729.44 138.98"><defs><style>.cls-1,.cls-2,.cls-3{fill:#fff;}.cls-1,.cls-2{stroke:#fff;stroke-linecap:round;stroke-linejoin:round;}.cls-1{stroke-width:2.07px;}.cls-2{stroke-width:1.04px;}.cls-4{fill:url(#linear-gradient);}.cls-5{fill:#89b8e3;}</style><linearGradient id="linear-gradient" x1="689.94" y1="368.82" x2="689.94" y2="237.72" gradientTransform="translate(791.48 608.6) rotate(180)" gradientUnits="userSpaceOnUse"><stop offset="0" stop-color="#055694"/><stop offset="0.24" stop-color="#2070ad"/><stop offset="0.5" stop-color="#3483c1"/><stop offset="0.75" stop-color="#408fcc"/><stop offset="1" stop-color="#4493d0"/></linearGradient></defs><title>MAST Logo Horizontal</title><line class="cls-1" x1="150.57" y1="4.59" x2="150.57" y2="131.84"/><line class="cls-2" x1="155.81" y1="4.59" x2="155.81" y2="131.84"/><line class="cls-1" x1="161.06" y1="4.59" x2="161.06" y2="131.84"/><path class="cls-3" d="M208.49,265.78h5.94l14.66,37.16,14.6-37.16h5.94v42.39h-4V271.54h-.12L231,308.17h-3.8l-14.54-36.63h-.12v36.63h-4Z" transform="translate(-32.05 -235.92)"/><path class="cls-3" d="M257.76,265.78h4v42.39h-4Z" transform="translate(-32.05 -235.92)"/><path class="cls-3" d="M270.05,265.78h4v22.8l24.63-22.8h5.46l-18.93,17.51,19.83,24.88h-5.23l-17.63-22.09-8.13,7.54v14.55h-4Z" transform="translate(-32.05 -235.92)"/><path class="cls-3" d="M307.51,265.78h4V292c-.05,9.86,4.64,13.6,12.41,13.6s12.53-3.74,12.47-13.6V265.78h4v27.13c0,8.73-4.69,16.15-16.51,16.15s-16.44-7.42-16.44-16.15Z" transform="translate(-32.05 -235.92)"/><path class="cls-3" d="M347.1,265.78h4v39h23.75v3.44H347.1Z" transform="translate(-32.05 -235.92)"/><path class="cls-3" d="M379.93,294.22c-.18,8.72,6.12,11.4,13.83,11.4,4.46,0,11.22-2.44,11.22-8.61,0-4.81-4.8-6.71-8.72-7.66L386.82,287c-5-1.24-9.56-3.62-9.56-10.21,0-4.15,2.67-11.93,14.6-11.93,8.37,0,15.74,4.51,15.68,13.18h-4c-.24-6.47-5.58-9.74-11.58-9.74-5.52,0-10.62,2.14-10.62,8.43,0,4,3,5.64,6.41,6.47L398,285.79c6,1.6,11,4.21,11,11.16,0,2.91-1.19,12.11-16.21,12.11-10,0-17.39-4.51-16.92-14.84Z" transform="translate(-32.05 -235.92)"/><path class="cls-3" d="M415.07,265.78h4v22.8l24.64-22.8h5.46l-18.94,17.51,19.83,24.88h-5.22l-17.64-22.09-8.13,7.54v14.55h-4Z" transform="translate(-32.05 -235.92)"/><path class="cls-3" d="M452.89,265.78h4v42.39h-4Z" transform="translate(-32.05 -235.92)"/><path class="cls-3" d="M499.49,265.78H504l16.62,42.39h-4.33L511.12,295H491.83l-5.1,13.18h-4.34Zm-6.41,25.77h16.68l-8.19-21.73Z" transform="translate(-32.05 -235.92)"/><path class="cls-3" d="M525.07,265.78h19.42c7,0,12.88,3.38,12.88,11,0,5.35-2.79,9.74-8.25,10.81v.12c5.52.71,7.12,4.51,7.42,9.55.18,2.91.18,8.73,2,10.87H554c-1-1.66-1-4.81-1.12-6.59-.36-5.94-.83-12.53-8.49-12.23H529.11v18.82h-4Zm4,20.13h15.08c4.93,0,9.14-3.09,9.14-8.26s-3.08-8.43-9.14-8.43H529.11Z" transform="translate(-32.05 -235.92)"/><path class="cls-3" d="M594.71,278.6a12.86,12.86,0,0,0-13-10.27c-11.22,0-16,9.38-16,18.64s4.75,18.65,16,18.65c7.83,0,12.82-6.06,13.59-13.6h4c-1.13,10.39-7.72,17-17.63,17-13.36,0-20-10.51-20-22.09s6.65-22.08,20-22.08c8,0,16,4.81,17,13.71Z" transform="translate(-32.05 -235.92)"/><path class="cls-3" d="M604.56,265.78h4v18.4h25.17v-18.4h4v42.39h-4V287.63H608.6v20.54h-4Z" transform="translate(-32.05 -235.92)"/><path class="cls-3" d="M646.65,265.78h4v42.39h-4Z" transform="translate(-32.05 -235.92)"/><path class="cls-3" d="M655.44,265.78h4.33l13.77,37.94h.12l13.66-37.94h4.27l-15.73,42.39h-4.69Z" transform="translate(-32.05 -235.92)"/><path class="cls-3" d="M695.92,265.78h29.27v3.44H700v15.32h23.63V288H700v16.75h25.53v3.44H695.92Z" transform="translate(-32.05 -235.92)"/><path class="cls-3" d="M210.12,242.82h6c2.38,0,4.53.83,4.53,3.46a3.2,3.2,0,0,1-2.45,3.17v0a3.31,3.31,0,0,1,3,3.44c0,1.35-.48,4-5.07,4h-6Zm1.34,6.19h4.63c2.16,0,3.19-1.07,3.19-2.39,0-1.76-1.09-2.65-3.19-2.65h-4.63Zm0,6.79h4.63c2,0,3.72-.65,3.72-2.91,0-1.8-1.36-2.73-3.72-2.73h-4.63Z" transform="translate(-32.05 -235.92)"/><path class="cls-3" d="M223.43,249.86c.12-2.39,1.8-3.42,4.14-3.42,1.8,0,3.76.55,3.76,3.28v5.43a.67.67,0,0,0,.73.75,1.18,1.18,0,0,0,.4-.08v1.05a3.42,3.42,0,0,1-.81.08c-1.27,0-1.47-.71-1.47-1.78h0a3.9,3.9,0,0,1-3.72,2.08c-1.88,0-3.42-.93-3.42-3,0-2.87,2.79-3,5.48-3.29,1-.12,1.6-.26,1.6-1.38,0-1.69-1.2-2.1-2.67-2.1s-2.69.71-2.73,2.37Zm6.65,1.51h0c-.16.29-.71.39-1,.45-2.11.38-4.75.36-4.75,2.36a2.13,2.13,0,0,0,2.28,2,3.28,3.28,0,0,0,3.56-3.21Z" transform="translate(-32.05 -235.92)"/><path class="cls-3" d="M234.3,246.74h1.14v2.39h0a3.78,3.78,0,0,1,3.86-2.53v1.24a3.53,3.53,0,0,0-3.8,3.67V257H234.3Z" transform="translate(-32.05 -235.92)"/><path class="cls-3" d="M241,242.82h1.25v5.86h0a3.63,3.63,0,0,1,3.54-2.24c3.11,0,4.6,2.51,4.6,5.4s-1.49,5.41-4.6,5.41a3.84,3.84,0,0,1-3.64-2.24h0V257H241Zm4.83,4.67c-2.65,0-3.58,2.23-3.58,4.35s.93,4.36,3.58,4.36c2.38,0,3.35-2.24,3.35-4.36S248.21,247.49,245.83,247.49Z" transform="translate(-32.05 -235.92)"/><path class="cls-3" d="M252.72,249.86c.12-2.39,1.8-3.42,4.13-3.42,1.81,0,3.77.55,3.77,3.28v5.43a.66.66,0,0,0,.73.75,1.12,1.12,0,0,0,.39-.08v1.05a3.32,3.32,0,0,1-.81.08c-1.26,0-1.46-.71-1.46-1.78h0a3.9,3.9,0,0,1-3.72,2.08c-1.88,0-3.43-.93-3.43-3,0-2.87,2.79-3,5.49-3.29,1-.12,1.6-.26,1.6-1.38,0-1.69-1.21-2.1-2.67-2.1s-2.7.71-2.73,2.37Zm6.65,1.51h0c-.16.29-.71.39-1.05.45-2.12.38-4.75.36-4.75,2.36a2.13,2.13,0,0,0,2.28,2,3.28,3.28,0,0,0,3.56-3.21Z" transform="translate(-32.05 -235.92)"/><path class="cls-3" d="M263.58,246.74h1.15v2.39h0a3.77,3.77,0,0,1,3.86-2.53v1.24a3.53,3.53,0,0,0-3.8,3.67V257h-1.25Z" transform="translate(-32.05 -235.92)"/><path class="cls-3" d="M270.17,249.86c.12-2.39,1.8-3.42,4.14-3.42,1.8,0,3.76.55,3.76,3.28v5.43a.67.67,0,0,0,.73.75,1.18,1.18,0,0,0,.4-.08v1.05a3.46,3.46,0,0,1-.82.08c-1.26,0-1.46-.71-1.46-1.78h0a3.9,3.9,0,0,1-3.72,2.08c-1.88,0-3.42-.93-3.42-3,0-2.87,2.79-3,5.48-3.29,1-.12,1.6-.26,1.6-1.38,0-1.69-1.21-2.1-2.67-2.1s-2.69.71-2.73,2.37Zm6.65,1.51h0c-.16.29-.71.39-1,.45-2.11.38-4.75.36-4.75,2.36a2.13,2.13,0,0,0,2.28,2,3.28,3.28,0,0,0,3.56-3.21Z" transform="translate(-32.05 -235.92)"/><path class="cls-3" d="M291.39,242.82h1.5L298.43,257H297l-1.73-4.4h-6.43l-1.7,4.4h-1.45Zm-2.14,8.59h5.56l-2.73-7.25Z" transform="translate(-32.05 -235.92)"/><path class="cls-3" d="M300.68,257v-2.1h1.67V257Z" transform="translate(-32.05 -235.92)"/><path class="cls-3" d="M737.72,308.87V298.19h1.37v9.08h6.08V299.2h1.37v8.07h8v1.6Z" transform="translate(-32.05 -235.92)"/><path class="cls-3" d="M737.37,288.59c0-5.28,4.17-7.92,8.77-7.92s8.77,2.64,8.77,7.92-4.17,8-8.77,8S737.37,293.9,737.37,288.59Zm16.17,0c0-4.43-3.72-6.32-7.4-6.32s-7.41,1.89-7.41,6.32,3.73,6.34,7.41,6.34S753.54,293.05,753.54,288.59Z" transform="translate(-32.05 -235.92)"/><path class="cls-3" d="M737.72,277.6v-7.71c0-2.79,1.34-5.12,4.39-5.12a4.05,4.05,0,0,1,4.29,3.28h0c.29-2.2,1.8-2.83,3.8-2.95,1.16-.07,3.47-.07,4.32-.78v1.77a6.73,6.73,0,0,1-2.62.45c-2.36.14-5,.33-4.86,3.37V276h7.48v1.61Zm8-1.61v-6a3.34,3.34,0,0,0-3.27-3.63c-2.06,0-3.35,1.23-3.35,3.63v6Z" transform="translate(-32.05 -235.92)"/><path class="cls-3" d="M210,351.93c-.18,8.73,6.11,11.4,13.83,11.4,4.45,0,11.22-2.44,11.22-8.61,0-4.81-4.81-6.71-8.73-7.66l-9.44-2.31c-5-1.25-9.55-3.62-9.55-10.21,0-4.16,2.67-11.94,14.6-11.94,8.37,0,15.73,4.52,15.67,13.18h-4c-.24-6.47-5.58-9.73-11.58-9.73-5.52,0-10.63,2.13-10.63,8.43,0,4,3,5.64,6.41,6.47l10.33,2.55c6,1.6,11,4.22,11,11.16,0,2.91-1.19,12.11-16.21,12.11-10,0-17.39-4.51-16.92-14.84Z" transform="translate(-32.05 -235.92)"/><path class="cls-3" d="M244,323.49h18.82c7.6,0,12.59,4.46,12.59,12.11s-5,12.12-12.59,12.12H248.05v18.16h-4Zm4,20.78h13.89c5.58,0,9.44-2.85,9.44-8.67s-3.86-8.66-9.44-8.66H248.05Z" transform="translate(-32.05 -235.92)"/><path class="cls-3" d="M286.46,323.49H291l16.62,42.39h-4.33l-5.17-13.18H278.8l-5.11,13.18h-4.33Zm-6.41,25.77h16.68l-8.19-21.73Z" transform="translate(-32.05 -235.92)"/><path class="cls-3" d="M340.24,336.32a12.85,12.85,0,0,0-13-10.27c-11.22,0-16,9.38-16,18.64s4.75,18.64,16,18.64c7.84,0,12.82-6.06,13.6-13.6h4c-1.13,10.39-7.71,17-17.63,17-13.36,0-20-10.51-20-22.08s6.65-22.09,20-22.09c8,0,16,4.81,17,13.72Z" transform="translate(-32.05 -235.92)"/><path class="cls-3" d="M350.51,323.49h29.27v3.45H354.55v15.31h23.63v3.45H354.55v16.74h25.53v3.44H350.51Z" transform="translate(-32.05 -235.92)"/><path class="cls-3" d="M400.08,323.49h33.6v3.45H418.9v38.94h-4V326.94H400.08Z" transform="translate(-32.05 -235.92)"/><path class="cls-3" d="M437.66,323.49h29.26v3.45H441.69v15.31h23.63v3.45H441.69v16.74h25.53v3.44H437.66Z" transform="translate(-32.05 -235.92)"/><path class="cls-3" d="M472.86,323.49h4v38.95h23.74v3.44H472.86Z" transform="translate(-32.05 -235.92)"/><path class="cls-3" d="M504.74,323.49H534v3.45H508.77v15.31H532.4v3.45H508.77v16.74H534.3v3.44H504.74Z" transform="translate(-32.05 -235.92)"/><path class="cls-3" d="M541.84,351.93c-.18,8.73,6.11,11.4,13.83,11.4,4.45,0,11.22-2.44,11.22-8.61,0-4.81-4.81-6.71-8.73-7.66l-9.43-2.31c-5-1.25-9.56-3.62-9.56-10.21,0-4.16,2.67-11.94,14.6-11.94,8.37,0,15.73,4.52,15.67,13.18h-4c-.24-6.47-5.58-9.73-11.58-9.73-5.52,0-10.63,2.13-10.63,8.43,0,4,3,5.64,6.42,6.47L560,343.5c6,1.6,11,4.22,11,11.16,0,2.91-1.19,12.11-16.21,12.11-10,0-17.39-4.51-16.92-14.84Z" transform="translate(-32.05 -235.92)"/><path class="cls-3" d="M607.73,336.32a12.84,12.84,0,0,0-13-10.27c-11.22,0-16,9.38-16,18.64s4.75,18.64,16,18.64c7.84,0,12.83-6.06,13.6-13.6h4c-1.12,10.39-7.71,17-17.63,17-13.35,0-20-10.51-20-22.08s6.65-22.09,20-22.09c8,0,16,4.81,17,13.72Z" transform="translate(-32.05 -235.92)"/><path class="cls-3" d="M635.69,322.6c13.3,0,19.95,10.51,19.95,22.09s-6.65,22.08-19.95,22.08-20-10.51-20-22.08S622.34,322.6,635.69,322.6Zm0,40.73c11.16,0,15.91-9.38,15.91-18.64s-4.75-18.64-15.91-18.64-16,9.38-16,18.64S624.47,363.33,635.69,363.33Z" transform="translate(-32.05 -235.92)"/><path class="cls-3" d="M660.45,323.49h18.82c7.6,0,12.58,4.46,12.58,12.11s-5,12.12-12.58,12.12H664.48v18.16h-4Zm4,20.78h13.9c5.58,0,9.44-2.85,9.44-8.67s-3.86-8.66-9.44-8.66h-13.9Z" transform="translate(-32.05 -235.92)"/><path class="cls-3" d="M696.36,323.49h29.27v3.45H700.4v15.31H724v3.45H700.4v16.74h25.53v3.44H696.36Z" transform="translate(-32.05 -235.92)"/><path class="cls-3" d="M732.4,351.93c-.18,8.73,6.11,11.4,13.83,11.4,4.45,0,11.22-2.44,11.22-8.61,0-4.81-4.81-6.71-8.73-7.66l-9.44-2.31c-5-1.25-9.56-3.62-9.56-10.21,0-4.16,2.68-11.94,14.61-11.94,8.37,0,15.73,4.52,15.67,13.18h-4c-.23-6.47-5.58-9.73-11.57-9.73-5.52,0-10.63,2.13-10.63,8.43,0,4,3,5.64,6.41,6.47l10.33,2.55c6,1.6,11,4.22,11,11.16,0,2.91-1.19,12.11-16.21,12.11-10,0-17.4-4.51-16.92-14.84Z" transform="translate(-32.05 -235.92)"/><path class="cls-4" d="M36,305.33a65.56,65.56,0,1,1,65.56,65.55A65.56,65.56,0,0,1,36,305.33Z" transform="translate(-32.05 -235.92)"/><path class="cls-5" d="M101.58,235.92a69.49,69.49,0,1,0,69.53,69.49A69.59,69.59,0,0,0,101.58,235.92Zm0,136.23a66.75,66.75,0,1,1,66.78-66.74A66.84,66.84,0,0,1,101.58,372.15Z" transform="translate(-32.05 -235.92)"/><path class="cls-3" d="M69.63,291.82a.47.47,0,0,1-.93,0,.47.47,0,1,1,.93,0Z" transform="translate(-32.05 -235.92)"/><path class="cls-3" d="M147.2,277.52a.58.58,0,0,1-1.13,0,.58.58,0,0,1,1.13,0Z" transform="translate(-32.05 -235.92)"/><path class="cls-3" d="M126.43,257.29a.52.52,0,1,1-.52-.52A.52.52,0,0,1,126.43,257.29Z" transform="translate(-32.05 -235.92)"/><path class="cls-3" d="M135,270.12a.51.51,0,0,1-.51.52.52.52,0,0,1-.53-.52.53.53,0,0,1,.53-.52A.52.52,0,0,1,135,270.12Z" transform="translate(-32.05 -235.92)"/><path class="cls-3" d="M144.4,289.49a.66.66,0,0,1-.65.65.65.65,0,0,1,0-1.3A.66.66,0,0,1,144.4,289.49Z" transform="translate(-32.05 -235.92)"/><path class="cls-3" d="M148.83,294.44a.63.63,0,1,1-1.26,0,.64.64,0,0,1,.63-.64A.63.63,0,0,1,148.83,294.44Z" transform="translate(-32.05 -235.92)"/><path class="cls-3" d="M77.68,263.24a.52.52,0,1,1-.52-.52A.52.52,0,0,1,77.68,263.24Z" transform="translate(-32.05 -235.92)"/><path class="cls-3" d="M152.11,328.38a.39.39,0,1,1-.39-.39A.38.38,0,0,1,152.11,328.38Z" transform="translate(-32.05 -235.92)"/><path class="cls-3" d="M141.89,303.25a.52.52,0,0,1-1,0,.52.52,0,1,1,1,0Z" transform="translate(-32.05 -235.92)"/><path class="cls-3" d="M90.66,300.16a.52.52,0,1,1-.52-.52A.52.52,0,0,1,90.66,300.16Z" transform="translate(-32.05 -235.92)"/><path class="cls-3" d="M101.29,301.59a.52.52,0,0,1-.52.52.52.52,0,0,1-.52-.52.53.53,0,0,1,.52-.52A.52.52,0,0,1,101.29,301.59Z" transform="translate(-32.05 -235.92)"/><path class="cls-3" d="M153.67,280.2a.52.52,0,0,1-.52.52.52.52,0,0,1-.52-.52.52.52,0,0,1,.52-.52A.53.53,0,0,1,153.67,280.2Z" transform="translate(-32.05 -235.92)"/><path class="cls-3" d="M125.81,291.92a.39.39,0,0,1-.38.4.4.4,0,0,1-.4-.4.39.39,0,0,1,.4-.38A.38.38,0,0,1,125.81,291.92Z" transform="translate(-32.05 -235.92)"/><path class="cls-3" d="M62.33,273.15a.27.27,0,0,1-.26.27.27.27,0,0,1,0-.53A.26.26,0,0,1,62.33,273.15Z" transform="translate(-32.05 -235.92)"/><path class="cls-3" d="M109.78,288.39a.27.27,0,0,1-.26.27.26.26,0,0,1-.26-.27.25.25,0,0,1,.26-.25A.26.26,0,0,1,109.78,288.39Z" transform="translate(-32.05 -235.92)"/><path class="cls-3" d="M92.69,326.23a.31.31,0,0,1-.33.27.3.3,0,0,1-.32-.27.33.33,0,0,1,.65,0Z" transform="translate(-32.05 -235.92)"/><path class="cls-3" d="M82.46,289.55a.39.39,0,0,1-.39.39.4.4,0,0,1-.39-.39.39.39,0,0,1,.39-.39A.38.38,0,0,1,82.46,289.55Z" transform="translate(-32.05 -235.92)"/><path class="cls-3" d="M92.49,272.86a.52.52,0,1,1-.52-.52A.52.52,0,0,1,92.49,272.86Z" transform="translate(-32.05 -235.92)"/><path class="cls-3" d="M96.51,249.74a.39.39,0,0,1-.39.4.4.4,0,0,1,0-.79A.39.39,0,0,1,96.51,249.74Z" transform="translate(-32.05 -235.92)"/><path class="cls-3" d="M68.76,302.4a.26.26,0,1,1-.26-.27A.26.26,0,0,1,68.76,302.4Z" transform="translate(-32.05 -235.92)"/><path class="cls-3" d="M66,308.31a.68.68,0,1,1-.68-.69A.68.68,0,0,1,66,308.31Z" transform="translate(-32.05 -235.92)"/><path class="cls-3" d="M158.76,286.54a.72.72,0,1,1-.72-.65A.69.69,0,0,1,158.76,286.54Z" transform="translate(-32.05 -235.92)"/><path class="cls-3" d="M159.86,309.27a.65.65,0,1,1-.65-.65A.65.65,0,0,1,159.86,309.27Z" transform="translate(-32.05 -235.92)"/><path class="cls-3" d="M56.85,307.68a.45.45,0,0,1-.89,0,.45.45,0,0,1,.89,0Z" transform="translate(-32.05 -235.92)"/><path class="cls-3" d="M154.75,272.18a.53.53,0,1,1-.53-.52A.52.52,0,0,1,154.75,272.18Z" transform="translate(-32.05 -235.92)"/><path class="cls-3" d="M86.81,316a.4.4,0,1,1-.4-.4A.4.4,0,0,1,86.81,316Z" transform="translate(-32.05 -235.92)"/><path class="cls-3" d="M80,315.42a.52.52,0,0,1-.52.52.52.52,0,0,1,0-1A.52.52,0,0,1,80,315.42Z" transform="translate(-32.05 -235.92)"/><path class="cls-3" d="M104.7,254.06a.44.44,0,0,1-.43.43.43.43,0,0,1-.43-.43.43.43,0,0,1,.43-.43A.43.43,0,0,1,104.7,254.06Z" transform="translate(-32.05 -235.92)"/><path class="cls-3" d="M78.28,280.21a1.07,1.07,0,1,1-1.06-1.06A1.07,1.07,0,0,1,78.28,280.21Z" transform="translate(-32.05 -235.92)"/><path class="cls-3" d="M89.47,265.75a1,1,0,1,1-1-1.05A1,1,0,0,1,89.47,265.75Z" transform="translate(-32.05 -235.92)"/><path class="cls-3" d="M104.1,275.75a.9.9,0,1,1-.9-.89A.9.9,0,0,1,104.1,275.75Z" transform="translate(-32.05 -235.92)"/><path class="cls-3" d="M53,294.17a1,1,0,1,1-1-1A1,1,0,0,1,53,294.17Z" transform="translate(-32.05 -235.92)"/><path class="cls-3" d="M57.49,272a.81.81,0,1,1-.81-.81A.81.81,0,0,1,57.49,272Z" transform="translate(-32.05 -235.92)"/><path class="cls-3" d="M151.46,296.68a.57.57,0,1,1-.57-.58A.57.57,0,0,1,151.46,296.68Z" transform="translate(-32.05 -235.92)"/><path class="cls-3" d="M85.27,248.49a.29.29,0,1,1-.28-.29A.29.29,0,0,1,85.27,248.49Z" transform="translate(-32.05 -235.92)"/><path class="cls-3" d="M126.92,271a.22.22,0,1,1-.22-.23A.22.22,0,0,1,126.92,271Z" transform="translate(-32.05 -235.92)"/><path class="cls-3" d="M100.36,248.81a.38.38,0,0,0,.75,0,.38.38,0,0,0-.75,0Z" transform="translate(-32.05 -235.92)"/><path class="cls-3" d="M71.66,305.65a.29.29,0,1,1-.29-.29A.29.29,0,0,1,71.66,305.65Z" transform="translate(-32.05 -235.92)"/><path class="cls-3" d="M55.59,313a.43.43,0,0,0,.43.43.43.43,0,0,0,0-.86A.43.43,0,0,0,55.59,313Z" transform="translate(-32.05 -235.92)"/><path class="cls-3" d="M43.29,309a.43.43,0,1,0,.43-.43A.43.43,0,0,0,43.29,309Z" transform="translate(-32.05 -235.92)"/><path class="cls-3" d="M61.47,326.29a.29.29,0,0,1-.29.29.29.29,0,0,1,0-.57A.29.29,0,0,1,61.47,326.29Z" transform="translate(-32.05 -235.92)"/><path class="cls-3" d="M156.67,291.53a.28.28,0,0,1-.28.29.29.29,0,0,1,0-.58A.28.28,0,0,1,156.67,291.53Z" transform="translate(-32.05 -235.92)"/><path class="cls-3" d="M73,282.62a.29.29,0,1,1-.28-.29A.29.29,0,0,1,73,282.62Z" transform="translate(-32.05 -235.92)"/><path class="cls-3" d="M64.17,259a.29.29,0,1,1-.28-.29A.29.29,0,0,1,64.17,259Z" transform="translate(-32.05 -235.92)"/><path class="cls-3" d="M150.67,302.12a.43.43,0,1,1-.86,0,.43.43,0,1,1,.86,0Z" transform="translate(-32.05 -235.92)"/><path class="cls-3" d="M118.75,300.52a.29.29,0,1,1-.58,0,.29.29,0,0,1,.58,0Z" transform="translate(-32.05 -235.92)"/><path class="cls-3" d="M83.16,320.24a.57.57,0,0,1-.57.57.58.58,0,0,1-.57-.57.57.57,0,0,1,.57-.57A.56.56,0,0,1,83.16,320.24Z" transform="translate(-32.05 -235.92)"/><path class="cls-3" d="M96.68,331.46a.43.43,0,0,1-.43.43.43.43,0,0,1-.43-.43.43.43,0,0,1,.43-.43A.44.44,0,0,1,96.68,331.46Z" transform="translate(-32.05 -235.92)"/><path class="cls-3" d="M80.83,298.14a.29.29,0,0,1-.29.28.29.29,0,0,1,0-.57A.29.29,0,0,1,80.83,298.14Z" transform="translate(-32.05 -235.92)"/><path class="cls-3" d="M114.28,327.64a.29.29,0,0,1-.29.29.28.28,0,0,1-.28-.29.27.27,0,0,1,.28-.28A.28.28,0,0,1,114.28,327.64Z" transform="translate(-32.05 -235.92)"/><path class="cls-3" d="M76.48,328.16a.29.29,0,1,1-.29-.29A.29.29,0,0,1,76.48,328.16Z" transform="translate(-32.05 -235.92)"/><path class="cls-3" d="M52.34,333.17a.29.29,0,1,1-.29-.29A.29.29,0,0,1,52.34,333.17Z" transform="translate(-32.05 -235.92)"/><path class="cls-3" d="M149.07,283.67a.28.28,0,0,1-.28.29.29.29,0,1,1,0-.57A.28.28,0,0,1,149.07,283.67Z" transform="translate(-32.05 -235.92)"/><path class="cls-3" d="M94.55,273.87a.29.29,0,0,1-.29.29.28.28,0,0,1-.28-.29.27.27,0,0,1,.28-.28A.28.28,0,0,1,94.55,273.87Z" transform="translate(-32.05 -235.92)"/><path class="cls-3" d="M148,290.87a.29.29,0,0,1-.58,0,.29.29,0,0,1,.58,0Z" transform="translate(-32.05 -235.92)"/><path d="M136.7,342.19l-3.65-.51c-.86-3.95-1.73-7.89-2.57-11.84l-1.61-7.46,8.68,6.46q9,6.75,18.16,13.41l.4-.6q-8.82-7-17.73-13.9l-10-7.81-1.45-6.68,22.9,3.89a.49.49,0,0,0,.57-.4.49.49,0,0,0-.4-.57l-6.08-1.13a.65.65,0,0,0,0-.24L113.45,247h0a.94.94,0,0,0-.77-.52l-.15-2.28a.49.49,0,0,0-1,.05l.1,5.88a1,1,0,0,0-.4.35L80,303.2,73.48,302h0a1.08,1.08,0,0,0-.36,2.12l29.57,5-.11.73-.65,4.45-41.4,17.2L57.09,331h0a1.13,1.13,0,1,0-.28,2.25l41.6,5.2-.07.42c-1.24,8.9-3.38,21.91-4.63,31.5l1.06.13c1.57-9.55,3.42-22.58,4.76-31.46l.07-.44,10.39,1.3.92.11-1.6,30.38a65.31,65.31,0,0,0,10.43-2.1L117,340.83l11.05,1.39c.82,4.84,2.57,15.47,3.67,21.31l1-.51c-.89-5.84-2.57-16-3.38-20.64l2.55.33c.83,4,2.5,13.27,3.61,18.71.42-.25.84-.51,1.25-.78-1-5.37-2.6-14-3.42-17.75l3.24.41c5.6.73,11.19,1.45,16.77,2.23l.81-1.06Q145.4,343.38,136.7,342.19ZM81.19,303.42l29.37-48.32-7.64,52.35Zm22.66,5.92,6.48,1.1v.38l-7.13,3,.54-3.74Zm-5.23,27.54-35.64-5,38.6-15.25ZM111,338.61l-.81-.11L99.81,337l3-20.93,7.53-3,.25,9.3c-3.17.28-5.44,1-5.44,1.84,0,.51.84,1,2.18,1.32a5.83,5.83,0,0,0,4,4.93Zm.48-29.57-7.36-1.37,7.64-52.45.91,53.39A7.11,7.11,0,0,0,111.45,309Zm12.76,3.76,1.54.26,1.2,5.8-2-1.52m-2.26-13.08-6.1-35.34,7.14,34.55,1.69,8.16-1.5-.28Zm.84,12-5.83-4.54,5.2.88Zm19.06-1.42-16-3-1.86-8.57L114,253.67l-.3-1.74Zm-21.09-10.35,1.15,6.65L117,310.06l0-.76a.15.15,0,0,0,0-.06l-3.49-52Zm-4.68,35-.89-9a5.8,5.8,0,0,0,3.71-4.81c1.34-.35,2.19-.81,2.19-1.33,0-.72-1.68-1.35-4.14-1.69l-.52-8.41h0l0-.49,6.82,5.08,2.16,12.55q.85,4.81,1.66,9.64Zm12.24,1.7c-.59-3.34-1.18-6.68-1.73-10l-2-11.29,2,1.52,1.81,8.77c.8,3.79,1.57,7.58,2.35,11.38Z" transform="translate(-32.05 -235.92)"/></svg>